<svg width="63" height="22" viewBox="0 0 63 22" fill="none" xmlns="http://www.w3.org/2000/svg">
<path d="M3.9375 6.69727C3.91406 6.62305 3.90234 6.55469 3.90234 6.49219C3.90234 6.30859 4.00195 6.16797 4.20117 6.07031C4.2832 6.03125 4.35156 6 4.40625 5.97656C4.46094 5.94922 4.50586 5.92969 4.54102 5.91797C4.58008 5.90234 4.61133 5.89258 4.63477 5.88867C4.6582 5.88477 4.68164 5.88281 4.70508 5.88281C4.79492 5.88281 4.87305 5.92773 4.93945 6.01758C5.00586 6.10352 5.06445 6.21484 5.11523 6.35156C5.16992 6.48438 5.2168 6.62891 5.25586 6.78516C5.29883 6.9375 5.3418 7.08203 5.38477 7.21875C5.43164 7.35156 5.48047 7.46289 5.53125 7.55273C5.58594 7.63867 5.65039 7.68164 5.72461 7.68164C5.80664 7.68164 5.88672 7.64453 5.96484 7.57031C6.04688 7.49219 6.12109 7.39453 6.1875 7.27734C6.25391 7.16016 6.30664 7.0332 6.3457 6.89648C6.38867 6.75977 6.41016 6.62891 6.41016 6.50391C6.41016 6.10547 6.33398 5.75 6.18164 5.4375C6.0293 5.12109 5.83203 4.85352 5.58984 4.63477C5.34766 4.41602 5.07227 4.25 4.76367 4.13672C4.45898 4.01953 4.1543 3.96094 3.84961 3.96094C3.48633 3.96094 3.1875 4.00391 2.95312 4.08984C2.71875 4.17578 2.5332 4.30078 2.39648 4.46484C2.26367 4.625 2.16992 4.82227 2.11523 5.05664C2.06445 5.29102 2.03906 5.55664 2.03906 5.85352C2.03906 6.08008 2.08203 6.30273 2.16797 6.52148C2.25391 6.73633 2.37891 6.93555 2.54297 7.11914C2.70703 7.30273 2.9082 7.46484 3.14648 7.60547C3.38477 7.74609 3.65625 7.85156 3.96094 7.92188C3.98047 7.92969 3.99609 7.93359 4.00781 7.93359C4.01953 7.93359 4.03516 7.93359 4.05469 7.93359C4.11719 7.93359 4.16602 7.91406 4.20117 7.875C4.24023 7.83594 4.25977 7.78711 4.25977 7.72852C4.25977 7.70898 4.25781 7.69141 4.25391 7.67578C4.25 7.65625 4.24414 7.63281 4.23633 7.60547L3.9375 6.69727ZM0.826172 5.89453C0.826172 5.85156 0.828125 5.79883 0.832031 5.73633C0.835938 5.67383 0.837891 5.60938 0.837891 5.54297C0.837891 5.48047 0.833984 5.41797 0.826172 5.35547C0.818359 5.29297 0.802734 5.23633 0.779297 5.18555C0.759766 5.13086 0.730469 5.08594 0.691406 5.05078C0.652344 5.01172 0.601562 4.98828 0.539062 4.98047C0.46875 4.97266 0.410156 4.94531 0.363281 4.89844C0.320312 4.84766 0.298828 4.78711 0.298828 4.7168C0.298828 4.61133 0.335938 4.50781 0.410156 4.40625C0.589844 4.13281 0.806641 3.90039 1.06055 3.70898C1.31836 3.51367 1.59961 3.35547 1.9043 3.23438C2.20898 3.11328 2.5293 3.02539 2.86523 2.9707C3.20117 2.91211 3.53906 2.88281 3.87891 2.88281C4.15234 2.88281 4.43359 2.91602 4.72266 2.98242C5.01172 3.04492 5.29297 3.14062 5.56641 3.26953C5.84375 3.39844 6.10547 3.55664 6.35156 3.74414C6.59766 3.93164 6.8125 4.15039 6.99609 4.40039C7.17969 4.64648 7.32422 4.92188 7.42969 5.22656C7.53906 5.52734 7.59375 5.85742 7.59375 6.2168C7.59375 6.51758 7.55859 6.79297 7.48828 7.04297C7.41797 7.29297 7.31836 7.51953 7.18945 7.72266C7.06445 7.92578 6.91211 8.10742 6.73242 8.26758C6.55273 8.42383 6.35352 8.55664 6.13477 8.66602C6.00586 8.7207 5.94141 8.80859 5.94141 8.92969C5.94141 8.94141 5.94141 8.95508 5.94141 8.9707C5.94141 8.98242 5.94336 8.99414 5.94727 9.00586C5.94727 9.02148 5.94922 9.03516 5.95312 9.04688C5.97266 9.15234 5.99805 9.28125 6.0293 9.43359C6.06445 9.58984 6.09766 9.75 6.12891 9.91406C6.16406 10.082 6.19336 10.2422 6.2168 10.3945C6.24023 10.5508 6.25195 10.6816 6.25195 10.7871C6.25195 11.0293 6.11523 11.1816 5.8418 11.2441C5.75977 11.2637 5.68164 11.2773 5.60742 11.2852C5.5332 11.2969 5.48438 11.3027 5.46094 11.3027C5.22266 11.3027 5.08594 11.1641 5.05078 10.8867C5.01562 10.6172 4.9707 10.3535 4.91602 10.0957C4.86523 9.83789 4.81055 9.58008 4.75195 9.32227C4.72852 9.23242 4.69531 9.16797 4.65234 9.12891C4.61328 9.08984 4.56641 9.07031 4.51172 9.07031H4.3418C3.82227 9.07031 3.34766 8.98633 2.91797 8.81836C2.48828 8.64648 2.11719 8.41602 1.80469 8.12695C1.49609 7.83398 1.25586 7.49609 1.08398 7.11328C0.912109 6.73047 0.826172 6.32422 0.826172 5.89453ZM9.7793 6.92578C9.7793 7.44922 9.85938 7.85352 10.0195 8.13867C10.1797 8.42383 10.4121 8.56641 10.7168 8.56641C10.9082 8.56641 11.084 8.50977 11.2441 8.39648C11.4082 8.2832 11.5488 8.125 11.666 7.92188C11.7832 7.71875 11.873 7.47852 11.9355 7.20117C12.002 6.91992 12.0352 6.61523 12.0352 6.28711C12.0352 6.08789 12.0273 5.91602 12.0117 5.77148C11.9961 5.62305 11.9785 5.49219 11.959 5.37891C11.9434 5.26172 11.9277 5.1582 11.9121 5.06836C11.8965 4.97852 11.8887 4.89258 11.8887 4.81055C11.8887 4.68555 11.9414 4.5957 12.0469 4.54102C12.1523 4.48242 12.3203 4.45312 12.5508 4.45312C12.8438 4.45312 13.0703 4.51953 13.2305 4.65234C13.3945 4.78516 13.4766 4.97852 13.4766 5.23242C13.4766 5.92383 13.4082 6.54492 13.2715 7.0957C13.1387 7.64648 12.9453 8.11523 12.6914 8.50195C12.4414 8.88477 12.1367 9.17969 11.7773 9.38672C11.418 9.59375 11.0156 9.69727 10.5703 9.69727C10.2539 9.69727 9.96094 9.63086 9.69141 9.49805C9.42578 9.36914 9.19531 9.1875 9 8.95312C8.80859 8.71484 8.6582 8.43359 8.54883 8.10938C8.43945 7.78125 8.38477 7.42188 8.38477 7.03125C8.38477 6.88281 8.38867 6.72461 8.39648 6.55664C8.4043 6.38867 8.41602 6.20898 8.43164 6.01758C8.44727 5.82227 8.4668 5.61133 8.49023 5.38477C8.51758 5.1582 8.54688 4.91211 8.57812 4.64648C8.58984 4.5332 8.64258 4.44336 8.73633 4.37695C8.83398 4.30664 8.95703 4.27148 9.10547 4.27148C9.23828 4.27148 9.36328 4.28516 9.48047 4.3125C9.59766 4.33984 9.69727 4.37695 9.7793 4.42383C9.86523 4.4707 9.93164 4.52539 9.97852 4.58789C10.0293 4.65039 10.0547 4.7168 10.0547 4.78711C10.0547 4.85742 10.0391 4.96875 10.0078 5.12109C9.98047 5.26953 9.94922 5.44141 9.91406 5.63672C9.88281 5.82812 9.85156 6.03711 9.82031 6.26367C9.79297 6.48633 9.7793 6.70703 9.7793 6.92578ZM15.0645 3.02344C14.9512 3.02344 14.8438 3.00781 14.7422 2.97656C14.6445 2.94141 14.5586 2.89453 14.4844 2.83594C14.4141 2.77344 14.3574 2.70117 14.3145 2.61914C14.2715 2.53711 14.25 2.44727 14.25 2.34961C14.25 2.18555 14.3145 2.05273 14.4434 1.95117C14.5762 1.84961 14.752 1.79883 14.9707 1.79883C15.0723 1.79883 15.1699 1.81836 15.2637 1.85742C15.3574 1.89258 15.4395 1.94141 15.5098 2.00391C15.584 2.06641 15.6426 2.14062 15.6855 2.22656C15.7285 2.30859 15.75 2.39453 15.75 2.48438C15.75 2.65234 15.6875 2.78516 15.5625 2.88281C15.4414 2.97656 15.2754 3.02344 15.0645 3.02344ZM14.2617 4.81055C14.2617 4.67383 14.3203 4.5625 14.4375 4.47656C14.5586 4.38672 14.7168 4.3418 14.9121 4.3418C15.2637 4.3418 15.4512 4.46289 15.4746 4.70508C15.4902 4.87305 15.5059 5.0625 15.5215 5.27344C15.541 5.48438 15.5586 5.70898 15.5742 5.94727C15.5938 6.18164 15.6094 6.42578 15.6211 6.67969C15.6367 6.92969 15.6504 7.17773 15.6621 7.42383C15.6738 7.66602 15.6836 7.90039 15.6914 8.12695C15.6992 8.35352 15.7031 8.56055 15.7031 8.74805C15.7031 8.94336 15.6328 9.08984 15.4922 9.1875C15.3555 9.28516 15.1543 9.33398 14.8887 9.33398C14.7676 9.33398 14.6719 9.30469 14.6016 9.24609C14.5352 9.19141 14.502 9.10938 14.502 9C14.502 8.46094 14.4883 7.95703 14.4609 7.48828C14.4375 7.01562 14.4102 6.5957 14.3789 6.22852C14.3516 5.86133 14.3242 5.55664 14.2969 5.31445C14.2734 5.06836 14.2617 4.90039 14.2617 4.81055ZM19.2422 7.54688C19.1094 7.54688 18.9805 7.55664 18.8555 7.57617C18.7344 7.5957 18.6211 7.61719 18.5156 7.64062C18.4102 7.66016 18.3164 7.67969 18.2344 7.69922C18.1523 7.71875 18.0879 7.72852 18.041 7.72852C17.998 7.72852 17.9531 7.71094 17.9062 7.67578C17.8633 7.63672 17.8242 7.58789 17.7891 7.5293C17.7539 7.4707 17.7246 7.40625 17.7012 7.33594C17.6777 7.26562 17.666 7.19727 17.666 7.13086C17.666 7.07227 17.707 6.99023 17.7891 6.88477C17.875 6.7793 17.9785 6.66016 18.0996 6.52734C18.2246 6.39453 18.3594 6.25195 18.5039 6.09961C18.6523 5.94727 18.7871 5.79492 18.9082 5.64258C19.0332 5.49023 19.1367 5.34375 19.2188 5.20312C19.3047 5.05859 19.3477 4.92773 19.3477 4.81055C19.3477 4.67773 19.2988 4.58008 19.2012 4.51758C19.1035 4.45117 18.9766 4.41797 18.8203 4.41797C18.6055 4.41797 18.3906 4.44336 18.1758 4.49414C17.9648 4.54492 17.7676 4.60156 17.584 4.66406C17.4004 4.72656 17.2344 4.7832 17.0859 4.83398C16.9414 4.88477 16.8281 4.91016 16.7461 4.91016C16.6914 4.91016 16.6387 4.89453 16.5879 4.86328C16.541 4.83203 16.498 4.79102 16.459 4.74023C16.4199 4.68555 16.3887 4.62305 16.3652 4.55273C16.3457 4.48242 16.3359 4.4082 16.3359 4.33008C16.3359 4.19336 16.3574 4.07422 16.4004 3.97266C16.4473 3.86719 16.5098 3.79883 16.5879 3.76758C16.7363 3.71289 16.9121 3.66211 17.1152 3.61523C17.3223 3.56445 17.5371 3.51953 17.7598 3.48047C17.9824 3.44141 18.2031 3.41211 18.4219 3.39258C18.6445 3.36914 18.8457 3.35742 19.0254 3.35742C19.5098 3.35742 19.8789 3.45508 20.1328 3.65039C20.3867 3.8418 20.5137 4.12109 20.5137 4.48828C20.5137 4.65234 20.4922 4.80664 20.4492 4.95117C20.4102 5.0957 20.3457 5.24023 20.2559 5.38477C20.1699 5.5293 20.0605 5.67969 19.9277 5.83594C19.7949 5.98828 19.6348 6.1543 19.4473 6.33398C19.373 6.4082 19.3359 6.46875 19.3359 6.51562C19.3359 6.58203 19.4082 6.62305 19.5527 6.63867C19.9316 6.6582 20.2656 6.72461 20.5547 6.83789C20.8477 6.95117 21.0938 7.10547 21.293 7.30078C21.4922 7.49609 21.6426 7.72852 21.7441 7.99805C21.8496 8.26367 21.9023 8.5625 21.9023 8.89453C21.9023 9.30469 21.8262 9.6875 21.6738 10.043C21.5254 10.4023 21.3184 10.7129 21.0527 10.9746C20.791 11.2402 20.4824 11.4492 20.127 11.6016C19.7715 11.7539 19.3887 11.8301 18.9785 11.8301C18.6152 11.8301 18.2754 11.7734 17.959 11.6602C17.6426 11.5508 17.3672 11.3984 17.1328 11.2031C16.9023 11.0117 16.7188 10.7852 16.582 10.5234C16.4492 10.2656 16.3828 9.98633 16.3828 9.68555C16.3828 9.54492 16.3984 9.40234 16.4297 9.25781C16.4609 9.11719 16.502 8.99023 16.5527 8.87695C16.6035 8.76367 16.6602 8.67188 16.7227 8.60156C16.7852 8.53125 16.8477 8.49609 16.9102 8.49609C17.0078 8.49609 17.1016 8.50781 17.1914 8.53125C17.2852 8.55078 17.3672 8.58008 17.4375 8.61914C17.5117 8.6543 17.5703 8.69531 17.6133 8.74219C17.6602 8.78906 17.6836 8.83594 17.6836 8.88281C17.6836 8.92188 17.6758 8.96094 17.6602 9C17.6484 9.04297 17.6348 9.08789 17.6191 9.13477C17.6074 9.18555 17.5938 9.23828 17.5781 9.29297C17.5664 9.34766 17.5605 9.40625 17.5605 9.46875C17.5605 9.64453 17.5996 9.81055 17.6777 9.9668C17.7598 10.127 17.8691 10.2656 18.0059 10.3828C18.1426 10.5 18.3027 10.5918 18.4863 10.6582C18.6699 10.7285 18.8652 10.7637 19.0723 10.7637C19.3223 10.7637 19.5488 10.7207 19.752 10.6348C19.959 10.5527 20.1348 10.4336 20.2793 10.2773C20.4277 10.125 20.541 9.94141 20.6191 9.72656C20.7012 9.51562 20.7422 9.28125 20.7422 9.02344C20.7422 8.8125 20.7031 8.61719 20.625 8.4375C20.5508 8.25781 20.4473 8.10352 20.3145 7.97461C20.1816 7.8418 20.0234 7.73828 19.8398 7.66406C19.6562 7.58594 19.457 7.54688 19.2422 7.54688Z" fill="black"/>
<path d="M25.828 10.54C25.892 10.66 25.928 10.768 25.936 10.864C25.952 10.96 25.96 11.1 25.96 11.284V17.944C25.96 18.496 25.808 18.82 25.504 18.916C25.352 18.964 25.16 18.988 24.928 18.988C24.696 18.988 24.512 18.968 24.376 18.928C24.24 18.888 24.136 18.84 24.064 18.784C23.992 18.728 23.936 18.648 23.896 18.544C23.856 18.408 23.836 18.2 23.836 17.92V13.9C23.636 14.148 23.344 14.544 22.96 15.088C22.576 15.624 22.332 15.96 22.228 16.096C22.124 16.232 22.052 16.328 22.012 16.384C21.972 16.432 21.872 16.504 21.712 16.6C21.56 16.688 21.392 16.732 21.208 16.732C21.032 16.732 20.868 16.692 20.716 16.612C20.572 16.524 20.468 16.44 20.404 16.36L20.308 16.228C20.148 16.028 19.832 15.604 19.36 14.956C18.888 14.3 18.632 13.948 18.592 13.9V17.944C18.592 18.128 18.584 18.268 18.568 18.364C18.56 18.452 18.524 18.552 18.46 18.664C18.34 18.88 18.028 18.988 17.524 18.988C17.036 18.988 16.732 18.88 16.612 18.664C16.548 18.552 16.508 18.448 16.492 18.352C16.484 18.256 16.48 18.112 16.48 17.92V11.26C16.48 11.076 16.484 10.94 16.492 10.852C16.508 10.756 16.548 10.648 16.612 10.528C16.732 10.32 17.044 10.216 17.548 10.216C17.764 10.216 17.948 10.244 18.1 10.3C18.26 10.348 18.364 10.4 18.412 10.456L18.484 10.528L21.208 14.104C22.568 12.304 23.476 11.116 23.932 10.54C24.068 10.324 24.388 10.216 24.892 10.216C25.404 10.216 25.716 10.324 25.828 10.54ZM31.0254 13.348C31.0734 12.9 31.3894 12.676 31.9734 12.676C32.2854 12.676 32.5174 12.7 32.6694 12.748C32.8214 12.796 32.9254 12.88 32.9814 13C33.0454 13.12 33.0814 13.228 33.0894 13.324C33.1054 13.412 33.1134 13.548 33.1134 13.732V17.932C33.1134 18.116 33.1054 18.256 33.0894 18.352C33.0814 18.44 33.0494 18.544 32.9934 18.664C32.8814 18.872 32.6054 18.976 32.1654 18.976C31.7334 18.976 31.4414 18.924 31.2894 18.82C31.1454 18.708 31.0614 18.548 31.0374 18.34C30.7414 18.764 30.2454 18.976 29.5494 18.976C28.8614 18.976 28.2214 18.66 27.6294 18.028C27.0374 17.396 26.7414 16.664 26.7414 15.832C26.7414 14.992 27.0374 14.26 27.6294 13.636C28.2294 13.004 28.8854 12.688 29.5974 12.688C29.8694 12.688 30.1174 12.736 30.3414 12.832C30.5654 12.928 30.7214 13.02 30.8094 13.108C30.8974 13.188 30.9694 13.268 31.0254 13.348ZM28.8414 15.844C28.8414 16.108 28.9454 16.348 29.1534 16.564C29.3614 16.772 29.6134 16.876 29.9094 16.876C30.2054 16.876 30.4494 16.768 30.6414 16.552C30.8414 16.336 30.9414 16.1 30.9414 15.844C30.9414 15.58 30.8454 15.336 30.6534 15.112C30.4694 14.888 30.2174 14.776 29.8974 14.776C29.5854 14.776 29.3294 14.888 29.1294 15.112C28.9374 15.336 28.8414 15.58 28.8414 15.844ZM34.1178 18.436C33.9658 18.34 33.8898 18.188 33.8898 17.98C33.8898 17.772 34.0418 17.456 34.3458 17.032C34.4338 16.896 34.5738 16.828 34.7658 16.828C34.9658 16.828 35.2338 16.928 35.5698 17.128C35.9058 17.32 36.2098 17.416 36.4818 17.416C36.9698 17.416 37.2138 17.32 37.2138 17.128C37.2138 16.976 36.9458 16.864 36.4098 16.792C35.9058 16.72 35.4058 16.532 34.9098 16.228C34.6778 16.084 34.4858 15.86 34.3338 15.556C34.1818 15.244 34.1058 14.876 34.1058 14.452C34.1058 13.188 34.9738 12.556 36.7098 12.556C37.2778 12.556 37.8618 12.692 38.4618 12.964C38.7418 13.092 38.8818 13.252 38.8818 13.444C38.8818 13.636 38.7938 13.872 38.6178 14.152C38.4418 14.432 38.2618 14.572 38.0778 14.572C37.9818 14.572 37.8018 14.512 37.5378 14.392C37.2818 14.272 37.0018 14.212 36.6978 14.212C36.2258 14.212 35.9898 14.3 35.9898 14.476C35.9898 14.716 36.2618 14.872 36.8058 14.944C37.3338 15 37.8458 15.152 38.3418 15.4C38.5738 15.512 38.7658 15.708 38.9178 15.988C39.0778 16.26 39.1578 16.604 39.1578 17.02C39.1578 17.436 39.0778 17.792 38.9178 18.088C38.7658 18.376 38.5498 18.592 38.2698 18.736C37.7578 18.984 37.1138 19.108 36.3378 19.108C35.5698 19.108 34.8298 18.884 34.1178 18.436ZM43.4449 12.7C44.2449 12.7 44.9089 13.004 45.4369 13.612C45.9729 14.22 46.2409 14.964 46.2409 15.844V17.956C46.2409 18.14 46.2329 18.28 46.2169 18.376C46.2089 18.464 46.1729 18.568 46.1089 18.688C46.0049 18.896 45.6969 19 45.1849 19C44.6969 19 44.3929 18.896 44.2729 18.688C44.2089 18.568 44.1689 18.46 44.1529 18.364C44.1449 18.268 44.1409 18.124 44.1409 17.932V15.832C44.1409 15.504 44.0489 15.248 43.8649 15.064C43.6809 14.88 43.4449 14.788 43.1569 14.788C42.8769 14.788 42.6289 14.876 42.4129 15.052C42.1969 15.22 42.0729 15.412 42.0409 15.628V17.956C42.0409 18.14 42.0329 18.28 42.0169 18.376C42.0089 18.464 41.9729 18.568 41.9089 18.688C41.8049 18.896 41.4969 19 40.9849 19C40.4809 19 40.1729 18.892 40.0609 18.676C40.0049 18.556 39.9689 18.452 39.9529 18.364C39.9449 18.276 39.9409 18.136 39.9409 17.944V10.768C39.9409 10.584 39.9449 10.448 39.9529 10.36C39.9689 10.264 40.0049 10.16 40.0609 10.048C40.1729 9.832 40.4849 9.724 40.9969 9.724C41.5009 9.724 41.8049 9.832 41.9089 10.048C41.9729 10.168 42.0089 10.276 42.0169 10.372C42.0329 10.46 42.0409 10.596 42.0409 10.78V13.432C42.4409 12.944 42.9089 12.7 43.4449 12.7ZM47.2066 13.732C47.2066 13.548 47.2106 13.412 47.2186 13.324C47.2346 13.228 47.2706 13.12 47.3266 13C47.4386 12.792 47.7506 12.688 48.2626 12.688C48.6466 12.688 48.9186 12.756 49.0786 12.892C49.2146 13.004 49.2866 13.176 49.2946 13.408C49.3026 13.488 49.3066 13.604 49.3066 13.756V17.956C49.3066 18.14 49.2986 18.28 49.2826 18.376C49.2746 18.464 49.2386 18.568 49.1746 18.688C49.0706 18.896 48.7626 19 48.2506 19C47.7466 19 47.4386 18.892 47.3266 18.676C47.2706 18.556 47.2346 18.452 47.2186 18.364C47.2106 18.276 47.2066 18.136 47.2066 17.944V13.732ZM49.1746 11.512C49.1186 11.624 49.0146 11.704 48.8626 11.752C48.7106 11.8 48.5066 11.824 48.2506 11.824C48.0026 11.824 47.8026 11.8 47.6506 11.752C47.4986 11.704 47.3906 11.62 47.3266 11.5C47.2706 11.38 47.2346 11.276 47.2186 11.188C47.2106 11.092 47.2066 10.952 47.2066 10.768C47.2066 10.584 47.2106 10.448 47.2186 10.36C47.2346 10.264 47.2706 10.16 47.3266 10.048C47.4386 9.832 47.7506 9.724 48.2626 9.724C48.7666 9.724 49.0706 9.832 49.1746 10.048C49.2386 10.168 49.2746 10.276 49.2826 10.372C49.2986 10.46 49.3066 10.596 49.3066 10.78C49.3066 10.964 49.2986 11.104 49.2826 11.2C49.2746 11.288 49.2386 11.392 49.1746 11.512ZM53.9372 14.8L53.1572 14.752V16.408C53.1572 16.624 53.1892 16.78 53.2532 16.876C53.3252 16.972 53.4532 17.02 53.6372 17.02C53.8292 17.02 53.9732 17.028 54.0692 17.044C54.1732 17.052 54.2812 17.088 54.3932 17.152C54.5772 17.256 54.6692 17.524 54.6692 17.956C54.6692 18.46 54.5572 18.768 54.3332 18.88C54.2132 18.936 54.1052 18.972 54.0092 18.988C53.9212 18.996 53.7892 19 53.6132 19C52.7812 19 52.1492 18.812 51.7172 18.436C51.2852 18.06 51.0692 17.424 51.0692 16.528V14.752C50.9172 14.776 50.7532 14.788 50.5772 14.788C50.4012 14.788 50.2532 14.72 50.1332 14.584C50.0212 14.448 49.9652 14.216 49.9652 13.888C49.9652 13.56 49.9852 13.324 50.0252 13.18C50.0652 13.028 50.1212 12.92 50.1932 12.856C50.3212 12.752 50.4812 12.7 50.6732 12.7L51.0692 12.748V11.512C51.0692 11.328 51.0732 11.192 51.0812 11.104C51.0972 11.016 51.1372 10.92 51.2012 10.816C51.3052 10.616 51.6132 10.516 52.1252 10.516C52.6692 10.516 52.9932 10.664 53.0972 10.96C53.1372 11.088 53.1572 11.292 53.1572 11.572V12.748C53.5092 12.716 53.7732 12.7 53.9492 12.7C54.1332 12.7 54.2692 12.708 54.3572 12.724C54.4532 12.732 54.5612 12.768 54.6812 12.832C54.8892 12.936 54.9932 13.244 54.9932 13.756C54.9932 14.26 54.8852 14.568 54.6692 14.68C54.5492 14.736 54.4412 14.772 54.3452 14.788C54.2572 14.796 54.1212 14.8 53.9372 14.8ZM59.7598 13.348C59.8078 12.9 60.1238 12.676 60.7078 12.676C61.0198 12.676 61.2518 12.7 61.4038 12.748C61.5558 12.796 61.6598 12.88 61.7158 13C61.7798 13.12 61.8158 13.228 61.8238 13.324C61.8398 13.412 61.8478 13.548 61.8478 13.732V17.932C61.8478 18.116 61.8398 18.256 61.8238 18.352C61.8158 18.44 61.7838 18.544 61.7278 18.664C61.6158 18.872 61.3398 18.976 60.8998 18.976C60.4678 18.976 60.1758 18.924 60.0238 18.82C59.8798 18.708 59.7958 18.548 59.7718 18.34C59.4758 18.764 58.9798 18.976 58.2838 18.976C57.5958 18.976 56.9558 18.66 56.3638 18.028C55.7718 17.396 55.4758 16.664 55.4758 15.832C55.4758 14.992 55.7718 14.26 56.3638 13.636C56.9638 13.004 57.6198 12.688 58.3318 12.688C58.6038 12.688 58.8518 12.736 59.0758 12.832C59.2998 12.928 59.4558 13.02 59.5438 13.108C59.6318 13.188 59.7038 13.268 59.7598 13.348ZM57.5758 15.844C57.5758 16.108 57.6798 16.348 57.8878 16.564C58.0958 16.772 58.3478 16.876 58.6438 16.876C58.9398 16.876 59.1838 16.768 59.3758 16.552C59.5758 16.336 59.6758 16.1 59.6758 15.844C59.6758 15.58 59.5798 15.336 59.3878 15.112C59.2038 14.888 58.9518 14.776 58.6318 14.776C58.3198 14.776 58.0638 14.888 57.8638 15.112C57.6718 15.336 57.5758 15.58 57.5758 15.844Z" fill="#9A3B3B"/>
</svg>
